<?xml version="1.0" encoding="utf-8"?>
<!-- Generator: Adobe Illustrator 28.3.0, SVG Export Plug-In . SVG Version: 6.00 Build 0)  -->
<svg version="1.1" id="Layer_1" xmlns="http://www.w3.org/2000/svg" xmlns:xlink="http://www.w3.org/1999/xlink" x="0px" y="0px"
	 viewBox="0 0 398 111" style="enable-background:new 0 0 398 111;" xml:space="preserve">
<style type="text/css">
	.st0{fill:#181728;}
	.st1{fill:none;stroke:#FFFFFF;stroke-width:2;stroke-opacity:0.52;}
	.st2{opacity:0.8;enable-background:new    ;}
	.st3{fill:#F2F2F2;}
	.st4{fill:#FF0420;}
	.st5{fill:#FFFFFF;}
</style>
<path class="st0" d="M17,0h364c9.4,0,17,7.6,17,17v77c0,9.4-7.6,17-17,17H17c-9.4,0-17-7.6-17-17V17C0,7.6,7.6,0,17,0z"/>
<path class="st1" d="M17,1h364c8.8,0,16,7.2,16,16v77c0,8.8-7.2,16-16,16H17c-8.8,0-16-7.2-16-16V17C1,8.2,8.2,1,17,1z"/>
<g>
	<g class="st2">
		<path class="st3" d="M115.2,38.6c-0.2,0-0.3-0.1-0.4-0.2c-0.1-0.1-0.1-0.2-0.1-0.4l3.3-15.7c0-0.2,0.1-0.3,0.2-0.4
			c0.1-0.1,0.3-0.2,0.4-0.2h5.9c0.9,0,1.7,0.1,2.4,0.3c0.7,0.2,1.3,0.5,1.7,1s0.7,1,0.9,1.6c0.2,0.6,0.1,1.4-0.1,2.2
			c-0.4,1.7-1.1,3-2.3,3.8c-1.2,0.9-2.6,1.3-4.4,1.3h-4.5l-1.3,6c0,0.2-0.1,0.3-0.2,0.4c-0.1,0.1-0.3,0.2-0.4,0.2H115.2z M118.8,30
			h4c1.1,0,2.1-0.3,2.9-0.8c0.8-0.5,1.3-1.3,1.5-2.3c0.1-0.7,0.2-1.2,0.1-1.7c-0.1-0.5-0.3-0.8-0.8-1.1c-0.4-0.2-1.1-0.4-2.1-0.4
			h-4.3L118.8,30z"/>
		<path class="st3" d="M136.2,38.8c-0.9,0-1.8-0.1-2.6-0.4c-0.8-0.3-1.4-0.7-1.9-1.2c-0.5-0.5-0.8-1.2-1-2.1c-0.2-0.8-0.2-1.8,0-2.9
			c0.1-0.7,0.3-1.4,0.4-2c0.1-0.6,0.3-1.3,0.5-2c0.5-2.2,1.5-3.9,2.8-5c1.3-1.1,3-1.6,5-1.6c1,0,1.8,0.1,2.6,0.4
			c0.8,0.3,1.4,0.7,1.9,1.2c0.5,0.6,0.8,1.2,1,2.1c0.2,0.8,0.2,1.8,0,2.9c-0.1,0.7-0.3,1.4-0.4,2c-0.1,0.6-0.3,1.3-0.5,2
			c-0.5,2.3-1.5,3.9-2.8,5C139.9,38.3,138.3,38.8,136.2,38.8z M136.3,36.8c1.3,0,2.4-0.4,3.3-1.1c1-0.7,1.6-1.9,2-3.6
			c0.2-0.7,0.3-1.4,0.4-1.9c0.1-0.6,0.2-1.2,0.4-1.9c0.3-1.6,0.2-2.8-0.4-3.6c-0.6-0.7-1.5-1.1-2.8-1.1c-1.3,0-2.4,0.4-3.3,1.1
			c-0.9,0.7-1.6,1.9-2,3.6c-0.2,0.7-0.3,1.3-0.5,1.9c-0.1,0.6-0.3,1.2-0.4,1.9c-0.3,1.6-0.2,2.8,0.4,3.6
			C134.1,36.4,135,36.8,136.3,36.8z"/>
		<path class="st3" d="M149,38.6c-0.2,0-0.4-0.1-0.5-0.2c-0.1-0.1-0.2-0.3-0.2-0.5l0.2-15.6c0-0.1,0-0.2,0.1-0.3
			c0.1-0.1,0.2-0.2,0.4-0.2h1.2c0.2,0,0.3,0,0.4,0.1c0.1,0.1,0.1,0.2,0.1,0.4l-0.1,12.1l4.3-8.3c0.1-0.1,0.2-0.3,0.3-0.4
			c0.1-0.1,0.3-0.2,0.6-0.2h0.9c0.2,0,0.4,0.1,0.5,0.2c0.1,0.1,0.1,0.3,0.1,0.4l0.9,8.5l5.1-12.4c0.1-0.3,0.3-0.4,0.7-0.4h1.3
			c0.2,0,0.3,0.1,0.4,0.2c0,0.1,0,0.3,0,0.4l-6.3,15.5c-0.1,0.2-0.2,0.4-0.4,0.5c-0.1,0.1-0.3,0.2-0.5,0.2h-1.1
			c-0.2,0-0.4-0.1-0.5-0.2c-0.1-0.1-0.2-0.3-0.2-0.4l-1.1-9.1l-4.8,9.1c-0.1,0.2-0.2,0.3-0.3,0.4c-0.2,0.1-0.3,0.2-0.5,0.2H149z"/>
		<path class="st3" d="M165.8,38.6c-0.2,0-0.3-0.1-0.4-0.2c-0.1-0.1-0.1-0.2-0.1-0.4l3.3-15.7c0-0.2,0.1-0.3,0.2-0.4
			c0.1-0.1,0.3-0.2,0.4-0.2h9.9c0.2,0,0.3,0.1,0.4,0.2c0.1,0.1,0.1,0.2,0.1,0.4l-0.2,0.9c0,0.2-0.1,0.3-0.2,0.4
			c-0.1,0.1-0.3,0.1-0.4,0.1h-8.2l-1.1,5.3h7.6c0.2,0,0.3,0.1,0.4,0.2c0.1,0.1,0.1,0.2,0.1,0.4l-0.2,0.9c0,0.2-0.1,0.3-0.2,0.4
			c-0.1,0.1-0.3,0.2-0.4,0.2h-7.6l-1.2,5.4h8.4c0.2,0,0.3,0,0.4,0.1c0.1,0.1,0.1,0.2,0.1,0.4l-0.2,0.9c0,0.2-0.1,0.3-0.2,0.4
			c-0.1,0.1-0.3,0.2-0.4,0.2H165.8z"/>
		<path class="st3" d="M180.7,38.6c-0.2,0-0.3-0.1-0.4-0.2c-0.1-0.1-0.1-0.2-0.1-0.4l3.3-15.7c0-0.2,0.1-0.3,0.2-0.4
			c0.1-0.1,0.3-0.2,0.4-0.2h5.9c1.8,0,3.1,0.4,4,1.3c0.9,0.8,1.1,2.1,0.8,3.8c-0.3,1.2-0.8,2.2-1.5,3c-0.8,0.8-1.7,1.3-2.9,1.6
			l2.4,6.4c0,0,0,0.1,0,0.1s0,0.1,0,0.1c0,0.1-0.1,0.2-0.2,0.3c-0.1,0.1-0.3,0.1-0.4,0.1h-1.2c-0.3,0-0.5-0.1-0.6-0.2
			c-0.1-0.1-0.2-0.3-0.2-0.4l-2.2-6.1h-4.2l-1.3,6.2c0,0.2-0.1,0.3-0.2,0.4c-0.1,0.1-0.3,0.2-0.5,0.2H180.7z M184.4,29.8h4
			c1.2,0,2.1-0.3,2.8-0.8c0.7-0.5,1.1-1.3,1.4-2.2c0.2-1,0.1-1.7-0.4-2.2c-0.5-0.5-1.3-0.8-2.5-0.8h-4L184.4,29.8z"/>
		<path class="st3" d="M196.1,38.6c-0.2,0-0.3-0.1-0.4-0.2c-0.1-0.1-0.1-0.2-0.1-0.4l3.3-15.7c0-0.2,0.1-0.3,0.2-0.4
			c0.1-0.1,0.3-0.2,0.4-0.2h9.9c0.2,0,0.3,0.1,0.4,0.2c0.1,0.1,0.1,0.2,0.1,0.4l-0.2,0.9c0,0.2-0.1,0.3-0.2,0.4
			c-0.1,0.1-0.3,0.1-0.4,0.1H201l-1.1,5.3h7.6c0.2,0,0.3,0.1,0.4,0.2c0.1,0.1,0.1,0.2,0.1,0.4l-0.2,0.9c0,0.2-0.1,0.3-0.2,0.4
			c-0.1,0.1-0.3,0.2-0.4,0.2h-7.6l-1.2,5.4h8.4c0.2,0,0.3,0,0.4,0.1c0.1,0.1,0.1,0.2,0.1,0.4l-0.2,0.9c0,0.2-0.1,0.3-0.2,0.4
			c-0.1,0.1-0.3,0.2-0.4,0.2H196.1z"/>
		<path class="st3" d="M210.6,38.6c-0.2,0-0.3-0.1-0.4-0.2c-0.1-0.1-0.1-0.2-0.1-0.4l3.3-15.7c0-0.2,0.1-0.3,0.2-0.4
			c0.1-0.1,0.3-0.2,0.4-0.2h5.2c1.1,0,2,0.1,2.8,0.4c0.8,0.3,1.5,0.7,2,1.2s0.9,1.2,1,2.1s0.2,1.7,0,2.8c-0.1,0.7-0.3,1.4-0.4,1.9
			c-0.1,0.5-0.3,1.2-0.4,1.9c-0.3,1.5-0.8,2.7-1.4,3.7c-0.6,1-1.5,1.7-2.5,2.2c-1,0.5-2.4,0.7-4,0.7H210.6z M212.8,36.6h3.6
			c1.1,0,2-0.2,2.7-0.5c0.7-0.3,1.3-0.8,1.7-1.5c0.4-0.7,0.8-1.6,1-2.7c0.1-0.5,0.2-0.9,0.3-1.3c0.1-0.4,0.2-0.7,0.2-1.1
			c0.1-0.4,0.1-0.8,0.2-1.2c0.3-1.6,0.2-2.7-0.4-3.4c-0.6-0.7-1.7-1.1-3.3-1.1h-3.5L212.8,36.6z"/>
		<path class="st3" d="M233.1,38.6c-0.2,0-0.3-0.1-0.4-0.2c-0.1-0.1-0.1-0.2-0.1-0.4l3.3-15.7c0-0.2,0.1-0.3,0.2-0.4
			c0.1-0.1,0.3-0.2,0.4-0.2h6.5c1.1,0,2,0.2,2.7,0.6c0.7,0.4,1.2,0.9,1.5,1.6s0.3,1.4,0.2,2.3c-0.2,0.7-0.4,1.3-0.7,1.8
			c-0.3,0.5-0.7,0.8-1,1.1s-0.7,0.5-1.1,0.6c0.6,0.4,1,0.9,1.4,1.5c0.4,0.7,0.4,1.5,0.2,2.5c-0.2,0.9-0.5,1.7-1,2.4s-1.2,1.3-2,1.8
			c-0.9,0.4-1.9,0.7-3.2,0.7H233.1z M235.3,36.7h4.6c1,0,1.8-0.3,2.6-0.8c0.7-0.6,1.2-1.2,1.3-2.1c0.2-0.8,0.1-1.5-0.3-2.1
			s-1.1-0.8-2.3-0.8h-4.7L235.3,36.7z M237,28.9h4.3c1,0,1.8-0.2,2.5-0.7c0.7-0.5,1.1-1.1,1.3-1.9c0.2-0.8,0.1-1.4-0.3-1.9
			s-1.1-0.6-2.1-0.6h-4.6L237,28.9z"/>
		<path class="st3" d="M253.7,38.6c-0.2,0-0.3-0.1-0.4-0.2c-0.1-0.1-0.1-0.2-0.1-0.4l1.2-5.7l-3.7-9.8c-0.1-0.2,0-0.4,0.1-0.5
			s0.3-0.3,0.5-0.3h1.1c0.1,0,0.3,0,0.3,0.1c0.1,0.1,0.2,0.2,0.2,0.3l3,7.7l6.2-7.7c0.1-0.1,0.2-0.2,0.3-0.3
			c0.1-0.1,0.3-0.1,0.4-0.1h1.5c0.3,0,0.4,0.1,0.4,0.3c0,0.2,0,0.4-0.2,0.5l-7.9,9.8l-1.2,5.7c0,0.2-0.1,0.3-0.2,0.4
			c-0.1,0.1-0.3,0.2-0.4,0.2H253.7z"/>
	</g>
</g>
<circle class="st4" cx="61" cy="55.8" r="40.5"/>
<path class="st5" d="M49.2,66.6c-2.4,0-4.4-0.6-5.9-1.7c-1.5-1.2-2.3-2.8-2.3-4.9c0-0.4,0.1-1,0.2-1.6c0.3-1.5,0.6-3.2,1.1-5.3
	c1.4-5.6,4.9-8.4,10.7-8.4c1.6,0,3,0.3,4.2,0.8c1.2,0.5,2.2,1.3,2.9,2.3c0.7,1,1.1,2.2,1.1,3.6c0,0.4-0.1,1-0.2,1.6
	c-0.3,1.8-0.7,3.6-1.1,5.3c-0.7,2.8-1.9,4.9-3.7,6.2C54.4,65.9,52.1,66.6,49.2,66.6z M49.6,62.2c1.1,0,2.1-0.3,2.9-1
	c0.8-0.7,1.4-1.7,1.7-3.1c0.5-1.9,0.8-3.6,1.1-5c0.1-0.4,0.1-0.9,0.1-1.3c0-1.8-1-2.8-2.9-2.8c-1.1,0-2.1,0.3-2.9,1
	c-0.8,0.7-1.4,1.7-1.7,3.1c-0.4,1.4-0.7,3-1.1,5c-0.1,0.4-0.1,0.8-0.1,1.3C46.7,61.3,47.7,62.2,49.6,62.2z M62.5,66.3
	c-0.2,0-0.4-0.1-0.5-0.2c-0.1-0.2-0.1-0.3-0.1-0.5l4.2-19.8c0-0.2,0.2-0.4,0.3-0.5c0.2-0.1,0.4-0.2,0.6-0.2h8.1
	c2.2,0,4.1,0.5,5.4,1.4c1.4,0.9,2.1,2.3,2.1,4c0,0.5-0.1,1-0.2,1.6c-0.5,2.3-1.5,4.1-3.1,5.2c-1.5,1.1-3.6,1.7-6.3,1.7H69l-1.4,6.7
	c0,0.2-0.2,0.4-0.3,0.5s-0.4,0.2-0.6,0.2C66.6,66.3,62.5,66.3,62.5,66.3z M73.3,54.6c0.9,0,1.6-0.2,2.2-0.7c0.6-0.5,1.1-1.1,1.3-2
	c0.1-0.3,0.1-0.6,0.1-0.9c0-0.6-0.2-1-0.5-1.3c-0.3-0.3-0.9-0.5-1.8-0.5h-3.6l-1.2,5.4C69.8,54.6,73.3,54.6,73.3,54.6z"/>
<g>
	<g>
		<path class="st5" d="M127.6,89.5c-2.1,0-4-0.3-5.7-0.9s-3.2-1.4-4.4-2.5c-1.2-1.1-2-2.5-2.5-4.2c-0.5-1.7-0.5-3.7-0.1-6
			c0.2-1.4,0.5-2.9,0.8-4.3c0.3-1.4,0.6-2.9,1-4.3c1.1-4.5,3.1-7.9,5.9-10.2c2.9-2.3,6.6-3.5,11.3-3.5c2.1,0,4,0.3,5.7,0.9
			c1.7,0.6,3.2,1.5,4.4,2.6c1.2,1.2,2,2.6,2.5,4.3s0.5,3.7,0.1,6c-0.3,1.5-0.5,2.9-0.8,4.3s-0.6,2.8-1,4.3c-1.1,4.6-3.1,8-6,10.3
			C136,88.4,132.2,89.5,127.6,89.5z M128.1,83c2,0,3.8-0.6,5.3-1.8c1.5-1.2,2.6-3.1,3.2-5.7c0.4-1.5,0.7-2.8,1-4.1
			c0.3-1.3,0.5-2.6,0.8-4.1c0.5-2.6,0.3-4.5-0.6-5.7c-0.9-1.2-2.4-1.8-4.4-1.8s-3.8,0.6-5.3,1.8c-1.5,1.2-2.6,3.1-3.2,5.7
			c-0.4,1.4-0.7,2.8-1,4.1c-0.3,1.3-0.5,2.7-0.8,4.1c-0.5,2.6-0.3,4.5,0.6,5.7C124.6,82.5,126,83,128.1,83z"/>
		<path class="st5" d="M149.5,89c-0.3,0-0.6-0.1-0.8-0.4c-0.2-0.2-0.3-0.5-0.2-0.9l6.9-32.5c0.1-0.4,0.2-0.7,0.5-0.9
			c0.3-0.2,0.6-0.4,1-0.4h13c2,0,3.8,0.2,5.4,0.7c1.6,0.5,2.9,1.2,4,2.1c1,0.9,1.8,2.1,2.2,3.5c0.4,1.4,0.4,3.1,0,4.9
			c-0.8,3.8-2.5,6.6-5,8.4c-2.5,1.8-5.9,2.7-10,2.7h-7.4l-2.4,11.3c-0.1,0.4-0.2,0.7-0.5,0.9c-0.3,0.2-0.6,0.4-1,0.4H149.5z
			 M160.3,70.2h6.5c1.6,0,3-0.4,4.2-1.2c1.2-0.8,2-2.1,2.4-3.8c0.2-1,0.2-1.9,0.1-2.6c-0.1-0.8-0.5-1.3-1.2-1.8s-1.7-0.6-3.1-0.6
			h-6.7L160.3,70.2z"/>
		<path class="st4" d="M194.8,89.5c-3.2,0-5.8-0.5-7.9-1.4c-2.1-0.9-3.5-2.1-4.4-3.7c-0.9-1.5-1.2-3.1-0.9-4.8
			c0-0.3,0.2-0.5,0.4-0.7c0.2-0.2,0.5-0.3,0.8-0.3h5.5c0.4,0,0.8,0.1,1,0.3c0.2,0.2,0.4,0.4,0.5,0.7c0.1,0.6,0.4,1.1,0.8,1.7
			c0.4,0.5,1,1,1.8,1.3c0.8,0.4,1.8,0.5,3,0.5c2.2,0,3.9-0.3,5.2-1c1.3-0.7,2-1.7,2.3-2.9c0.2-0.9,0.1-1.6-0.4-2.1s-1.3-1-2.5-1.5
			c-1.2-0.4-2.7-0.9-4.7-1.4c-2.4-0.5-4.4-1.3-5.9-2.2s-2.6-2.1-3.2-3.6c-0.6-1.4-0.7-3.1-0.2-5.1c0.6-3,2.2-5.4,4.8-7.1
			c2.6-1.8,5.9-2.6,10-2.6c2.1,0,4,0.3,5.6,0.9c1.6,0.6,3,1.4,4,2.4c1.1,1,1.9,2,2.3,3.1c0.5,1.1,0.6,2.2,0.4,3.2
			c0,0.3-0.2,0.5-0.4,0.7c-0.2,0.2-0.5,0.3-0.8,0.3h-5.7c-0.3,0-0.6-0.1-0.8-0.2c-0.2-0.1-0.4-0.4-0.6-0.7c0-0.9-0.4-1.6-1.3-2.3
			c-0.9-0.7-2-1-3.4-1c-1.6,0-3,0.3-4.2,0.9c-1.1,0.6-1.8,1.5-2.2,2.8c-0.2,0.8-0.1,1.5,0.3,2c0.4,0.5,1.1,1,2.2,1.5
			s2.5,0.9,4.3,1.4c2.8,0.6,5,1.4,6.6,2.3c1.6,0.9,2.7,2.1,3.3,3.5c0.6,1.4,0.7,3.1,0.2,5.1c-0.7,3.3-2.4,5.9-5.2,7.6
			C203,88.6,199.3,89.5,194.8,89.5z"/>
		<path class="st4" d="M223.1,89c-0.3,0-0.6-0.1-0.8-0.4c-0.2-0.2-0.3-0.5-0.2-0.9l5.8-26.8h-9.1c-0.3,0-0.6-0.1-0.8-0.4
			c-0.2-0.2-0.3-0.5-0.2-0.8l1-4.5c0.1-0.4,0.2-0.7,0.5-0.9c0.3-0.2,0.6-0.4,1-0.4h26.2c0.4,0,0.6,0.1,0.8,0.4
			c0.2,0.2,0.2,0.5,0.2,0.9l-1,4.5c-0.1,0.3-0.2,0.6-0.5,0.8c-0.3,0.2-0.6,0.4-1,0.4h-9l-5.8,26.8c-0.1,0.4-0.2,0.7-0.5,0.9
			c-0.3,0.2-0.6,0.4-1,0.4H223.1z"/>
		<path class="st4" d="M242.9,89c-0.4,0-0.7-0.2-0.8-0.5c-0.1-0.3-0.1-0.7,0.1-1l18.7-32.1c0.2-0.4,0.5-0.7,0.8-1
			c0.3-0.3,0.8-0.4,1.4-0.4h6.7c0.5,0,0.9,0.1,1.2,0.4c0.2,0.3,0.4,0.6,0.4,1l5.1,32.1c0.1,0.5,0,0.8-0.2,1.1
			c-0.2,0.3-0.5,0.4-0.9,0.4h-5.1c-0.5,0-0.8-0.1-1-0.4c-0.2-0.2-0.3-0.5-0.4-0.8l-1-5.5h-14.1l-3.4,5.6c-0.2,0.2-0.4,0.5-0.6,0.7
			c-0.3,0.2-0.6,0.3-1.1,0.3H242.9z M256.8,76h10.3L265,61.5L256.8,76z"/>
		<path class="st4" d="M294.8,89.5c-2.3,0-4.3-0.3-6-0.9c-1.8-0.6-3.2-1.5-4.3-2.6c-1.1-1.2-1.9-2.6-2.4-4.3
			c-0.4-1.7-0.5-3.6-0.1-5.8c0.2-1.4,0.5-2.8,0.9-4.4c0.3-1.6,0.7-3.1,1-4.5c0.7-2.9,1.8-5.3,3.3-7.3c1.5-2,3.4-3.6,5.7-4.6
			c2.3-1.1,5.1-1.6,8.2-1.6c2.2,0,4.1,0.3,5.9,0.8c1.8,0.5,3.3,1.3,4.5,2.4c1.2,1,2.1,2.3,2.6,3.8c0.5,1.5,0.6,3.1,0.3,4.9
			c0,0.3-0.2,0.5-0.4,0.8c-0.2,0.2-0.5,0.3-0.8,0.3h-5.8c-0.4,0-0.7-0.1-0.9-0.3c-0.2-0.2-0.3-0.5-0.4-1c0.1-1.9-0.4-3.2-1.4-4
			c-1-0.8-2.4-1.1-4.2-1.1c-2.1,0-3.8,0.6-5.3,1.7c-1.5,1.1-2.6,3-3.2,5.7c-0.7,2.7-1.3,5.5-1.8,8.4c-0.5,2.6-0.2,4.5,0.7,5.6
			c0.9,1.1,2.4,1.7,4.4,1.7c1.7,0,3.3-0.4,4.7-1.1c1.4-0.8,2.5-2.1,3.4-4c0.3-0.5,0.5-0.8,0.8-1c0.2-0.2,0.6-0.3,1-0.3h5.8
			c0.3,0,0.5,0.1,0.7,0.3c0.2,0.2,0.2,0.5,0.2,0.8c-0.5,1.7-1.2,3.3-2.1,4.8c-0.9,1.5-2.1,2.7-3.5,3.8s-3.1,1.9-5,2.4
			S297.2,89.5,294.8,89.5z"/>
		<path class="st4" d="M316.2,89c-0.3,0-0.6-0.1-0.8-0.4c-0.2-0.2-0.3-0.5-0.2-0.9l6.9-32.5c0.1-0.4,0.2-0.7,0.5-0.9
			c0.3-0.2,0.6-0.4,0.9-0.4h5.4c0.4,0,0.6,0.1,0.8,0.4c0.2,0.2,0.2,0.5,0.2,0.9l-2.4,11.1L339.6,55c0.2-0.2,0.4-0.4,0.8-0.6
			c0.3-0.2,0.8-0.3,1.3-0.3h6.2c0.5,0,0.8,0.2,0.9,0.6c0.1,0.4,0,0.8-0.3,1l-16,15.6l10.3,16c0.3,0.4,0.3,0.8,0,1.2s-0.6,0.5-1,0.5
			H336c-0.5,0-0.9-0.1-1.2-0.3c-0.3-0.2-0.5-0.4-0.6-0.7l-8.5-13L323,87.8c-0.1,0.4-0.2,0.7-0.5,0.9c-0.2,0.2-0.6,0.4-0.9,0.4H316.2
			z"/>
	</g>
</g>
</svg>
