<?xml version="1.0" encoding="utf-8"?>
<!-- Generator: Adobe Illustrator 28.3.0, SVG Export Plug-In . SVG Version: 6.00 Build 0)  -->
<svg version="1.1" id="Layer_1" xmlns="http://www.w3.org/2000/svg" xmlns:xlink="http://www.w3.org/1999/xlink" x="0px" y="0px"
	 viewBox="0 0 398 111" style="enable-background:new 0 0 398 111;" xml:space="preserve">
<style type="text/css">
	.st0{fill:#181728;}
	.st1{fill:none;stroke:#FFFFFF;stroke-width:2;stroke-opacity:0.52;}
	.st2{opacity:0.8;fill:#F2F2F2;}
	.st3{font-family:'Unbounded-Light';}
	.st4{font-size:18px;}
	.st5{fill:#F3F2F3;}
	.st6{fill:#F3F3F3;}
	.st7{fill:#F2F2F2;}
	.st8{fill:#F1006A;}
	.st9{fill:#070505;}
</style>
<path class="st0" d="M17,0h364c9.4,0,17,7.6,17,17v77c0,9.4-7.6,17-17,17H17c-9.4,0-17-7.6-17-17V17C0,7.6,7.6,0,17,0z"/>
<path class="st1" d="M17,1h364c8.8,0,16,7.2,16,16v77c0,8.8-7.2,16-16,16H17c-8.8,0-16-7.2-16-16V17C1,8.2,8.2,1,17,1z"/>
<text transform="matrix(1 0 0 1 114.0458 35.5977)" class="st2 st3 st4">POWERED BY</text>
<path class="st5" d="M264.9,53.9c0.6-2.1,1.5-3.1,2.9-2.9c1.5,0.1,2.6,1.4,2.4,3c-0.4,2.5-1.1,5-1.7,7.5c-1.7,6.9-3.4,13.8-5.1,20.7
	c-0.4,1.5-0.9,3.4,0.9,4.4c1.8,1,3.2-0.2,4.5-1.2c1.3-1,2-2.1,2-3.9c0.1-7.2,4.8-13.6,10.9-15.4c4.2-1.3,8-0.4,10.2,2.4
	c1.8,2.3,2.3,5.1,2,7.9c-0.7,5.9-3.3,10.7-8.4,13.9c-3.7,2.4-8.7,2.4-11.7,0.1c-1-0.8-1.8-2-2.5-2.9c-1.4,1.1-3,2.6-4.7,3.6
	c-2.6,1.5-5.6,1.2-6.9-0.6c-0.8-1-1.2-2.3-1.8-3.6c-1.1,0.9-2.3,2-3.5,3c-4.1,3.3-10.4,3.2-13.2-2.6c-1.2,1-2.3,2.2-3.6,3.1
	c-1.1,0.7-2.4,1.3-3.7,1.5c-3.6,0.4-5-0.8-6.2-5c-1.3,1.1-2.5,2.3-3.8,3.3c-4,2.9-8.7,2.6-11.6-0.7c-0.6-0.7-1-1.6-1.6-2.4
	c-0.8,0.8-1.5,1.7-2.4,2.5c-4.3,3.8-8.8,3.5-12.1-1.2c-1.5-2.2-2.3-4.9-3.3-7.4c-0.5-1.2,0.2-2.1,1.5-2.6c1.6-0.6,3.3-1.3,4.8-2.2
	c1.4-0.8,2.4-2.1,2.5-3.8c0.1-1.5-0.8-2.3-2.2-2c-4.5,1-7.7,3.7-9.1,8.1c-1.2,3.6-1.9,7.4-2.9,11.1c-0.2,0.6-0.4,1.2-0.8,1.7
	c-0.8,1-1.9,1.3-3.1,0.9c-1.3-0.4-1.7-1.4-1.5-2.6c0.4-2.3,0.8-4.6,1.4-6.9c2.3-9.5,4.6-19,6.9-28.5c0.3-1.3,0.8-2.9,2.5-2.7
	c0.8,0.1,1.8,1,2.3,1.7c0.3,0.5,0.2,1.4,0,2.1c-1.1,4.7-2.2,9.3-3.4,14.4c2.7-2.3,5.5-3.6,8.7-3.9c5.3-0.7,8.3,2.8,6.8,7.9
	c-1,3.4-3.5,5.5-6.6,7c-0.7,0.3-1.4,0.6-2.3,1c0.9,1.4,1.6,2.8,2.6,4c1.4,1.8,3.5,2.1,5.3,0.7c1.9-1.6,3.7-3.2,4.2-6
	c1.1-5.3,3.7-9.8,8.4-12.8c2.6-1.7,5.6-2.4,8.6-1.4c1.5,0.5,2.7,1.6,4.3,2.6c0.3-0.3,0.7-1.1,1.4-1.4c0.7-0.4,1.8-0.6,2.4-0.4
	c0.6,0.2,1.2,1.4,1.1,2c-0.4,2.4-1.1,4.8-1.6,7.2c-0.6,2.5-1.3,5.1-1.9,7.6c-0.3,1.1-0.1,2.2,0.9,3c1,0.8,2.1,0.6,3.1,0
	c1.9-1.1,3.3-2.3,3.5-5c0.6-7.2,5.6-14.4,13.7-15.8c2.6-0.4,5.2-0.3,7.6,1.5C262.8,62.6,263.8,58.3,264.9,53.9 M258.7,77.6
	c0.2-0.9,0.5-1.8,0.7-2.7c0.6-2.6-0.8-4.3-3.4-4.2c-1,0-2.1,0.3-3,0.7c-4.1,2.1-6.3,5.6-6.9,10c-0.2,1.8-0.5,3.9,1.5,4.9
	c2,1.1,3.9,0.3,5.6-0.9C255.9,83.6,257.6,80.9,258.7,77.6 M276.1,82.6c0.5,4,3.8,5.4,7.2,3c3.8-2.7,5.2-6.6,4.9-11.1
	c-0.2-3.4-2.5-4.7-5.7-3.5c-0.6,0.2-1.2,0.5-1.7,0.9C277.4,74.5,276.1,78.1,276.1,82.6 M227.1,80.5c0.7-1.8,1.5-3.6,2-5.4
	c0.6-2-0.7-3.9-2.8-4.3c-2-0.4-3.7,0.3-5.3,1.5c-2.9,2.3-4.6,5.3-5.1,8.9c-0.2,1.9-0.3,4,1.6,5.1c1.8,1.1,3.6,0.2,5.1-1
	C224.2,83.9,225.5,82.2,227.1,80.5z"/>
<path class="st5" d="M123.3,59.3c-0.7,1.6-1.3,3.1-1.8,4.6c-0.1,0.4-0.2,0.8-0.3,1.2c-0.5,1.6-2.2,2.7-3.5,2.4
	c-1.5-0.4-2.6-2.1-2.4-3.8c0.9-7.2,8.5-14.7,15.7-15.8c4.5-0.7,8.6-0.1,12.3,2.4c5.1,3.5,7,9.1,5.6,15.3c-2.1,9-8.5,13.1-16.3,14.4
	c-0.5,0.1-1.1,0.3-1.6,0.2c-2.7-0.6-3,1.3-3.5,3.2c-0.5,2.2-1.1,4.5-1.6,6.7c-0.3,1.3-1.3,1.9-2.4,1.8c-0.9-0.1-1.8-0.8-2.4-1.4
	c-0.4-0.4-0.4-1.4-0.2-2.1c2.2-8.7,4.4-17.4,6.6-26.1c0.1-0.5,0.3-1.2,0.7-1.5c0.7-0.5,1.6-1,2.3-0.9c0.6,0.1,1.4,1.2,1.4,1.8
	c-0.2,2.3-0.6,4.7-1,7c-0.4,2.1-0.9,4.2-1.4,6.3c7.4,0.2,13.8-4.2,14.4-12c0.4-4.4-2.2-7.9-7.2-8.5
	C131.4,53.7,126.9,55.2,123.3,59.3z"/>
<path class="st6" d="M146.8,76.8c1.4-3.6,3.3-6.7,6.3-9c3.9-2.9,9.3-3.3,12.6-0.8c1.9,1.4,2.9,3.4,3.2,5.7c1,6.7-2.7,14.2-8.5,17.6
	c-4.5,2.6-9.7,2-12.5-1.4c-2.6-3.2-2.5-6.9-1.7-10.6C146.4,77.8,146.6,77.4,146.8,76.8 M163.4,74.8c-0.1-4.1-3.7-5.2-6.8-3.2
	c-3.9,2.5-5.5,6.3-5.3,10.8c0.1,3.5,3,5,6.2,3.6c0.6-0.3,1.1-0.6,1.6-1C162.2,82.5,163.4,79,163.4,74.8z"/>
<path class="st6" d="M310.1,83c0.8-0.8,1.6-1.3,2.6-0.5c1,0.8,0.7,1.8,0.1,2.7c-2.4,3.2-5.2,5.8-9.6,5.8c-3.3-0.1-5.9-2.3-5.8-5.6
	c0.1-2.7,0.8-5.5,1.4-8.2c0.5-2.4,1.3-4.7,1.9-7.2c-0.9,0-1.7,0-2.5,0c-1.7,0-2.8-1-2.8-2.4c-0.1-1.4,0.9-2.5,2.5-2.7
	c0.2,0,0.3,0,0.5,0c3.1-0.1,3.1-0.1,4-3c0.4-1.4,0.9-2.9,1.5-4.3c0.7-1.6,2-2.2,3.1-1.8c1.2,0.5,1.8,1.8,1.5,3.5
	c-0.4,1.8-0.9,3.6-1.4,5.6c1.9,0,3.8,0,5.7,0c1,0,2.2-0.2,2.5,1.3c0.3,1.3-0.4,2.5-1.8,2.9c-0.9,0.3-1.9,0.2-2.8,0.3
	c-1.5,0.1-2.9,0.2-4.7,0.4c-0.4,1.6-0.9,3.3-1.3,5c-0.7,2.6-1.5,5.1-1.9,7.8c-0.2,1,0.4,2.3,1,3.1c0.8,1,2.2,0.6,3.2,0
	C308.1,84.8,309,83.9,310.1,83z"/>
<path class="st7" d="M174.7,67.6c1.2-4.8,2.3-9.5,3.5-14.1c0.4-1.8,1.5-2.6,2.8-2.3c1.6,0.4,2.6,2,2.2,3.6c-2,7.9-4.1,15.9-6.1,23.8
	c-0.5,1.8-1,3.6-1.4,5.5c-0.4,1.8,0.3,3.1,2.1,3.8c1.3,0.5,1.5,1.5,0.5,2.6c-1.2,1.3-2.8,1.5-4.4,1.1c-1.7-0.5-3-1.7-3.3-3.5
	c-0.2-1.4-0.3-2.9,0-4.2C171.9,78.5,173.3,73.1,174.7,67.6z"/>
<circle class="st8" cx="61" cy="55.8" r="40.5"/>
<path class="st9" d="M54.4,40.5c-0.1,0-0.2,0-0.3,0.2c-0.2,0.2-0.3,0.4-0.3,0.5c0,0,0,0,0,0c-0.1,0.1-0.2,0.2-0.2,0.3c0,0,0,0,0,0
	c-0.1,0.1-0.2,0.2-0.2,0.3c0,0,0,0-0.1,0c-0.3,0.5-0.5,0.9-0.8,1.3c0,0,0,0-0.1,0c-0.2,0.5-0.4,0.9-0.5,1.3
	c-0.4,2.3-0.9,4.6-1.3,6.8c-0.4,1.9-1.7,3-3.5,2.9c-1.8-0.1-3-1.3-3.1-3.2c-0.5-10.3,5-19.1,15.2-20.9c10.7-1.9,19.3,4.4,21.3,14.2
	c2.4,11.9-4.6,22.1-16.6,24.1c-2.3,0.4-4.7,0.1-7.2,0.1c-0.5,2.3-0.9,4.6-1.4,6.8c-0.3,1.2-0.4,2.4-0.8,3.6c-0.6,1.9-2,2.7-3.9,2.4
	c-1.5-0.2-2.6-1.6-2.4-3.3c0.3-2.7,0.8-5.3,1.4-8c1.2-5.7,2.4-11.3,3.6-16.9c0.6-2.7,2.6-3.9,4.8-3c1.5,0.6,2.3,2.1,1.9,3.7
	c-0.6,2.5-1.1,5-1.7,7.5c5.6,1,11.3-1.4,13.9-5.7c2.6-4.4,2.2-10.1-1.1-14.3c-0.3-0.3-0.5-0.4-0.6-0.6c0,0,0,0,0,0
	c-0.1-0.1-0.2-0.2-0.3-0.2c0,0,0,0,0,0c-0.1-0.1-0.2-0.2-0.3-0.2c0,0,0,0,0,0c-0.1-0.1-0.2-0.2-0.3-0.2c0-0.1-0.1-0.2-0.2-0.3
	c-0.3-0.2-0.4-0.2-0.6-0.3c0,0,0,0,0,0c-1-0.5-2-0.9-2.9-1.4c0,0,0,0-0.1,0c-2.2-0.5-4.3-0.7-6.4,0.1c0,0,0-0.1-0.1-0.1
	c-0.3,0.1-0.5,0.2-0.7,0.3c0,0,0,0-0.1,0c-0.7,0.3-1.2,0.6-1.8,0.9c0,0,0,0-0.1,0c-0.3,0.2-0.5,0.4-0.8,0.6c0,0,0,0,0,0
	c-0.1,0.1-0.2,0.2-0.3,0.2c0,0,0,0,0,0c-0.1,0.1-0.2,0.2-0.3,0.2c0,0,0,0-0.1,0C54.6,40.3,54.5,40.4,54.4,40.5z"/>
<path class="st9" d="M65.8,81.8c-1.6,1.2-3.3,1.4-4.6,0.4c-1.3-0.9-1.9-2.7-1.3-4.1c0.6-1.6,1.9-2.5,3.6-2.4c1.4,0.1,2.5,0.7,3,2
	C67.1,79.2,67,80.5,65.8,81.8z"/>
</svg>
